<svg style="display:none" aria-hidden="true">
<symbol id="s-wind-r" viewBox="0 0 24 24"><g fill="none" stroke="currentColor" stroke-width="1.5" stroke-linecap="round"><path d="M3 8H5M7 5.85714V5.5C7 4.11929 8.11929 3 9.5 3C10.8807 3 12 4.11929 12 5.5C12 6.88071 10.8807 8 9.5 8H8"/><path d="M4 14H5M15 17V17.5C15 19.433 16.567 21 18.5 21C20.433 21 22 19.433 22 17.5C22 15.567 20.433 14 18.5 14H9"/><path d="M2 11H8M15 8V7.5C15 5.567 16.567 4 18.5 4C20.433 4 22 5.567 22 7.5C22 9.433 20.433 11 18.5 11H12.25"/></g></symbol>
<symbol id="s-wind-d" viewBox="0 0 24 24"><g transform="rotate(90 12 12)" fill="none" stroke="currentColor" stroke-width="1.5" stroke-linecap="round"><path d="M3 8H5M7 5.85714V5.5C7 4.11929 8.11929 3 9.5 3C10.8807 3 12 4.11929 12 5.5C12 6.88071 10.8807 8 9.5 8H8"/><path d="M4 14H5M15 17V17.5C15 19.433 16.567 21 18.5 21C20.433 21 22 19.433 22 17.5C22 15.567 20.433 14 18.5 14H9"/><path d="M2 11H8M15 8V7.5C15 5.567 16.567 4 18.5 4C20.433 4 22 5.567 22 7.5C22 9.433 20.433 11 18.5 11H12.25"/></g></symbol>
<symbol id="s-wind-l" viewBox="0 0 24 24"><g transform="rotate(180 12 12)" fill="none" stroke="currentColor" stroke-width="1.5" stroke-linecap="round"><path d="M3 8H5M7 5.85714V5.5C7 4.11929 8.11929 3 9.5 3C10.8807 3 12 4.11929 12 5.5C12 6.88071 10.8807 8 9.5 8H8"/><path d="M4 14H5M15 17V17.5C15 19.433 16.567 21 18.5 21C20.433 21 22 19.433 22 17.5C22 15.567 20.433 14 18.5 14H9"/><path d="M2 11H8M15 8V7.5C15 5.567 16.567 4 18.5 4C20.433 4 22 5.567 22 7.5C22 9.433 20.433 11 18.5 11H12.25"/></g></symbol>
<symbol id="s-wind-u" viewBox="0 0 24 24"><g transform="rotate(-90 12 12)" fill="none" stroke="currentColor" stroke-width="1.5" stroke-linecap="round"><path d="M3 8H5M7 5.85714V5.5C7 4.11929 8.11929 3 9.5 3C10.8807 3 12 4.11929 12 5.5C12 6.88071 10.8807 8 9.5 8H8"/><path d="M4 14H5M15 17V17.5C15 19.433 16.567 21 18.5 21C20.433 21 22 19.433 22 17.5C22 15.567 20.433 14 18.5 14H9"/><path d="M2 11H8M15 8V7.5C15 5.567 16.567 4 18.5 4C20.433 4 22 5.567 22 7.5C22 9.433 20.433 11 18.5 11H12.25"/></g></symbol>
<symbol id="s-fire-h" viewBox="0 0 24 24"><path d="M8 12C8 13.1046 7.10457 14 6 14C4.89543 14 4 13.1046 4 12C4 10.8954 4.89543 10 6 10C7.10457 10 8 10.8954 8 12Z" fill="currentColor"/><path d="M14 12C14 13.1046 13.1046 14 12 14C10.8954 14 10 13.1046 10 12C10 10.8954 10.8954 10 12 10C13.1046 10 14 10.8954 14 12Z" fill="currentColor"/><path d="M18 14C19.1046 14 20 13.1046 20 12C20 10.8954 19.1046 10 18 10C16.8954 10 16 10.8954 16 12C16 13.1046 16.8954 14 18 14Z" fill="currentColor"/></symbol>
<symbol id="s-fire-v" viewBox="0 0 24 24"><g transform="rotate(90 12 12)"><path d="M8 12C8 13.1046 7.10457 14 6 14C4.89543 14 4 13.1046 4 12C4 10.8954 4.89543 10 6 10C7.10457 10 8 10.8954 8 12Z" fill="currentColor"/><path d="M14 12C14 13.1046 13.1046 14 12 14C10.8954 14 10 13.1046 10 12C10 10.8954 10.8954 10 12 10C13.1046 10 14 10.8954 14 12Z" fill="currentColor"/><path d="M18 14C19.1046 14 20 13.1046 20 12C20 10.8954 19.1046 10 18 10C16.8954 10 16 10.8954 16 12C16 13.1046 16.8954 14 18 14Z" fill="currentColor"/></g></symbol>
<symbol id="s-fire-x" viewBox="0 0 24 24"><path d="M8 12C8 13.1046 7.10457 14 6 14C4.89543 14 4 13.1046 4 12C4 10.8954 4.89543 10 6 10C7.10457 10 8 10.8954 8 12Z" fill="currentColor"/><path d="M14 12C14 13.1046 13.1046 14 12 14C10.8954 14 10 13.1046 10 12C10 10.8954 10.8954 10 12 10C13.1046 10 14 10.8954 14 12Z" fill="currentColor"/><path d="M18 14C19.1046 14 20 13.1046 20 12C20 10.8954 19.1046 10 18 10C16.8954 10 16 10.8954 16 12C16 13.1046 16.8954 14 18 14Z" fill="currentColor"/><g transform="rotate(90 12 12)"><path d="M8 12C8 13.1046 7.10457 14 6 14C4.89543 14 4 13.1046 4 12C4 10.8954 4.89543 10 6 10C7.10457 10 8 10.8954 8 12Z" fill="currentColor"/><path d="M14 12C14 13.1046 13.1046 14 12 14C10.8954 14 10 13.1046 10 12C10 10.8954 10.8954 10 12 10C13.1046 10 14 10.8954 14 12Z" fill="currentColor"/><path d="M18 14C19.1046 14 20 13.1046 20 12C20 10.8954 19.1046 10 18 10C16.8954 10 16 10.8954 16 12C16 13.1046 16.8954 14 18 14Z" fill="currentColor"/></g></symbol>
<symbol id="s-exp-r" viewBox="0 0 24 24">
  <path d="M18.3432 16.2428C18.7337 16.6333 19.3669 16.6333 19.7574 16.2428L22.5858 13.4144C23.3669 12.6333 23.3669 11.367 22.5858 10.5859L19.7573 7.75749C19.3668 7.36697 18.7336 7.36697 18.3431 7.75749C17.9526 8.14802 17.9526 8.78118 18.3431 9.17171L20.1715 11.0001L15 11.0001C14.4477 11.0001 14 11.4478 14 12.0001C14 12.5524 14.4477 13.0001 15 13.0001H20.1716L18.3432 14.8286C17.9527 15.2191 17.9527 15.8523 18.3432 16.2428Z" fill="currentColor"/>
  <path d="M5.65706 7.75752C5.26653 7.367 4.63337 7.367 4.24284 7.75752L1.41442 10.5859C0.633365 11.367 0.633215 12.6333 1.41426 13.4144L4.24269 16.2428C4.63321 16.6333 5.26638 16.6333 5.6569 16.2428C6.04743 15.8523 6.04743 15.2191 5.6569 14.8286L3.82843 13.0001L9 13.0001C9.55228 13.0001 10 12.5524 10 12.0001C10 11.4478 9.55228 11.0001 9 11.0001L3.82867 11.0001L5.65706 9.17173C6.04758 8.78121 6.04758 8.14805 5.65706 7.75752Z" fill="currentColor"/>
</symbol>
<symbol id="s-exp-d" viewBox="0 0 24 24">
  <g transform="rotate(90 12 12)">
    <path d="M18.3432 16.2428C18.7337 16.6333 19.3669 16.6333 19.7574 16.2428L22.5858 13.4144C23.3669 12.6333 23.3669 11.367 22.5858 10.5859L19.7573 7.75749C19.3668 7.36697 18.7336 7.36697 18.3431 7.75749C17.9526 8.14802 17.9526 8.78118 18.3431 9.17171L20.1715 11.0001L15 11.0001C14.4477 11.0001 14 11.4478 14 12.0001C14 12.5524 14.4477 13.0001 15 13.0001H20.1716L18.3432 14.8286C17.9527 15.2191 17.9527 15.8523 18.3432 16.2428Z" fill="currentColor"/>
    <path d="M5.65706 7.75752C5.26653 7.367 4.63337 7.367 4.24284 7.75752L1.41442 10.5859C0.633365 11.367 0.633215 12.6333 1.41426 13.4144L4.24269 16.2428C4.63321 16.6333 5.26638 16.6333 5.6569 16.2428C6.04743 15.8523 6.04743 15.2191 5.6569 14.8286L3.82843 13.0001L9 13.0001C9.55228 13.0001 10 12.5524 10 12.0001C10 11.4478 9.55228 11.0001 9 11.0001L3.82867 11.0001L5.65706 9.17173C6.04758 8.78121 6.04758 8.14805 5.65706 7.75752Z" fill="currentColor"/>
  </g>
</symbol>
<symbol id="s-teleport" viewBox="0 0 438.533 438.533"><path d="M409.133,109.203c-19.608-33.592-46.205-60.189-79.798-79.796C295.736,9.801,259.058,0,219.273,0c-39.781,0-76.47,9.801-110.063,29.407c-33.595,19.604-60.192,46.201-79.8,79.796C9.801,142.8,0,179.489,0,219.267c0,39.78,9.804,76.463,29.407,110.062c19.607,33.592,46.204,60.189,79.799,79.798c33.597,19.605,70.283,29.407,110.063,29.407s76.47-9.802,110.065-29.407c33.593-19.602,60.189-46.206,79.795-79.798c19.603-33.596,29.403-70.284,29.403-110.062C438.533,179.485,428.732,142.795,409.133,109.203zM353.742,297.208c-13.894,23.791-32.736,42.633-56.527,56.534c-23.791,13.894-49.771,20.834-77.945,20.834c-28.167,0-54.149-6.94-77.943-20.834c-23.791-13.901-42.633-32.743-56.527-56.534c-13.897-23.791-20.843-49.772-20.843-77.941c0-28.171,6.949-54.152,20.843-77.943c13.891-23.791,32.738-42.637,56.527-56.53c23.791-13.895,49.772-20.84,77.943-20.84c28.173,0,54.154,6.945,77.945,20.84c23.791,13.894,42.634,32.739,56.527,56.53c13.895,23.791,20.838,49.772,20.838,77.943C374.58,247.436,367.637,273.417,353.742,297.208z" fill="currentColor"/><path d="M219.27,146.178c-20.177,0-37.401,7.139-51.678,21.411c-14.272,14.277-21.411,31.501-21.411,51.678c0,20.175,7.135,37.402,21.411,51.673c14.277,14.277,31.504,21.416,51.678,21.416c20.179,0,37.406-7.139,51.676-21.416c14.274-14.271,21.413-31.498,21.413-51.673c0-20.177-7.139-37.401-21.413-51.678C256.676,153.316,239.449,146.178,219.27,146.178z" fill="currentColor"/></symbol>
<symbol id="s-blind" viewBox="0 0 32 32"><path d="M5.112,18.784l-2.153,2.156c-0.585,0.586-0.585,1.536 0.001,2.121c0.586,0.585 1.536,0.585 2.121,-0.001l2.666,-2.668c1.898,0.983 4.19,1.806 6.773,2.041l0,3.567c0,0.828 0.672,1.5 1.5,1.5c0.828,-0 1.5,-0.672 1.5,-1.5l0,-3.571c2.147,-0.201 4.091,-0.806 5.774,-1.571l3.199,3.202c0.585,0.586 1.535,0.586 2.121,0.001c0.586,-0.585 0.586,-1.535 0.001,-2.121l-2.579,-2.581c2.59,-1.665 4.091,-3.369 4.091,-3.369c0.546,-0.622 0.485,-1.57-0.137,-2.117c-0.622,-0.546-1.57,-0.485-2.117,0.137c0,-0-4.814,5.49-11.873,5.49c-7.059,0-11.873,-5.49-11.873,-5.49c-0.547,-0.622-1.495,-0.683-2.117,-0.137c-0.622,0.547-0.683,1.495-0.137,2.117c0,0 1.175,1.334 3.239,2.794Z" fill="currentColor" fill-rule="evenodd"/></symbol>
<symbol id="s-nuclear" viewBox="0 0 512 512"><circle cx="256" cy="256" r="48" fill="currentColor"/><path d="M403.08,108.92A208,208,0,0,0,108.92,403.08,208,208,0,0,0,403.08,108.92ZM342,256a86.13,86.13,0,0,1-53.47,79.59l51.71,68a169.73,169.73,0,0,1-168.48,0l51.71-68a86,86,0,0,1-50.56-101.77l-85.48.09a170.21,170.21,0,0,1,73.83-119L199.2,191.5a85.78,85.78,0,0,1,113.6,0l37.94-76.59a170.21,170.21,0,0,1,73.83,119l-85.48-.09A85.87,85.87,0,0,1,342,256Z" fill="currentColor"/></symbol>
<symbol id="s-bomb" viewBox="0 0 14 14"><path d="m 11.324219,3.07539 -1.21875,1.21875 0.621093,0.6211 c 0.220313,0.22031 0.220313,0.57656 0,0.79453 L 10.31875,6.11758 C 10.595313,6.7293 10.75,7.40899 10.75,8.12383 c 0,2.69297 -2.1820313,4.875 -4.875,4.875 C 3.1820313,12.99883 1,10.81914 1,8.12617 c 0,-2.69296 2.1820312,-4.875 4.875,-4.875 0.7148437,0 1.3945312,0.15469 2.00625,0.43125 L 8.2890625,3.27461 C 8.509375,3.0543 8.865625,3.0543 9.0835937,3.27461 L 9.7046875,3.8957 10.923438,2.67695 11.324219,3.07539 Z m 1.394531,-0.66797 -0.5625,0 c -0.154688,0 -0.28125,0.12657 -0.28125,0.28125 0,0.15469 0.126562,0.28125 0.28125,0.28125 l 0.5625,0 C 12.873438,2.96992 13,2.84336 13,2.68867 13,2.53399 12.873438,2.40742 12.71875,2.40742 Z M 11.3125,1.00117 c -0.154688,0 -0.28125,0.12657 -0.28125,0.28125 l 0,0.5625 c 0,0.15469 0.126562,0.28125 0.28125,0.28125 0.154688,0 0.28125,-0.12656 0.28125,-0.28125 l 0,-0.5625 c 0,-0.15468 -0.126562,-0.28125 -0.28125,-0.28125 z m 0.794531,1.28907 0.398438,-0.39844 c 0.110156,-0.11016 0.110156,-0.28828 0,-0.39844 -0.110157,-0.11016 -0.288281,-0.11016 -0.398438,0 L 11.708594,1.8918 c -0.110157,0.11015 -0.110157,0.28828 0,0.39844 0.1125,0.11015 0.290625,0.11015 0.398437,0 z m -1.589062,0 c 0.110156,0.11015 0.288281,0.11015 0.398437,0 0.110156,-0.11016 0.110156,-0.28829 0,-0.39844 L 10.517969,1.49336 c -0.110156,-0.11016 -0.288281,-0.11016 -0.398438,0 -0.110156,0.11016 -0.110156,0.28828 0,0.39844 l 0.398438,0.39844 z m 1.589062,0.79687 c -0.110156,-0.11016 -0.288281,-0.11016 -0.398437,0 -0.110157,0.11016 -0.110157,0.28828 0,0.39844 l 0.398437,0.39844 c 0.110157,0.11015 0.288281,0.11015 0.398438,0 0.110156,-0.11016 0.110156,-0.28829 0,-0.39844 L 12.107031,3.08711 Z M 3.625,7.37617 c 0,-0.82734 0.6726562,-1.5 1.5,-1.5 0.20625,0 0.375,-0.16875 0.375,-0.375 0,-0.20625 -0.16875,-0.375 -0.375,-0.375 -1.2398438,0 -2.25,1.01016 -2.25,2.25 0,0.20625 0.16875,0.375 0.375,0.375 0.20625,0 0.375,-0.16875 0.375,-0.375 z" fill="currentColor"/></symbol>
<symbol id="s-ads" viewBox="0 0 32 32"><path d="M23.211 6.667h4.789v16.846c0 1.296-1.071 2.423-2.366 2.423h-19.268c-1.296 0-2.366-1.127-2.366-2.423v-14.423c0-1.296 1.071-2.423 2.366-2.423h1.239l2.366 4.845h3.606l-2.366-4.845h2.366l2.423 4.845h3.606l-2.423-4.845h2.423l2.423 4.845h3.606l-2.424-4.845z" fill="currentColor"/></symbol>
<symbol id="s-lightning" viewBox="0 0 24 24"><path d="M12.566,24H8.719l2-8H6.586a2.561,2.561,0,0,1-2.451-3.3L7.976,0h9.467l-3,8h4.023a2.533,2.533,0,0,1,2.11,3.932Z" fill="currentColor"/></symbol>
<symbol id="s-ice" viewBox="0 0 24 24"><path d="M22.761,13.971l-2.445.646a2.7,2.7,0,0,0-.984.491L16.738,13.6a5.042,5.042,0,0,0,0-3.2l2.594-1.509a2.7,2.7,0,0,0,.984.491s2.617.679,2.7.679A1,1,0,0,0,23.272,8.1l-2.444-.647a.715.715,0,0,1-.508-.873l.647-2.444a1,1,0,1,0-1.934-.512l-.646,2.444a2.7,2.7,0,0,0-.061,1.1l-2.6,1.51A5,5,0,0,0,13,7.1v-3a2.707,2.707,0,0,0,.919-.6l1.788-1.788A1,1,0,0,0,14.293.293L12.505,2.081a.718.718,0,0,1-1.01,0L9.707.293A1,1,0,0,0,8.293,1.707L10.081,3.5A2.707,2.707,0,0,0,11,4.1v3A5,5,0,0,0,8.27,8.674l-2.6-1.51a2.7,2.7,0,0,0-.061-1.1L4.967,3.62a1,1,0,1,0-1.934.512L3.68,6.576a.715.715,0,0,1-.508.873L.728,8.1a1,1,0,0,0,.254,1.966c.085,0,2.7-.679,2.7-.679a2.7,2.7,0,0,0,.984-.491L7.262,10.4a5.042,5.042,0,0,0,0,3.2L4.668,15.108a2.7,2.7,0,0,0-.984-.491l-2.445-.646A1,1,0,0,0,.728,15.9l2.444.647a.715.715,0,0,1,.508.873l-.647,2.444a1,1,0,1,0,1.934.512l.646-2.444a2.7,2.7,0,0,0,.061-1.1l2.6-1.51A5,5,0,0,0,11,16.9v3a2.707,2.707,0,0,0-.919.6L8.293,22.293a1,1,0,0,0,1.414,1.414L11.5,21.919a.718.718,0,0,1,1.01,0l1.788,1.788a1,1,0,0,0,1.414-1.414l-1.788-1.788A2.707,2.707,0,0,0,13,19.9v-3a5,5,0,0,0,2.73-1.573l2.6,1.51a2.7,2.7,0,0,0,.061,1.1l.646,2.444a1,1,0,0,0,1.934-.512l-.647-2.444a.715.715,0,0,1,.508-.873l2.444-.647a1,1,0,1,0-.511-1.933Z" fill="currentColor"/></symbol>
</svg>
